<mxfile host="app.diagrams.net" modified="2023-06-27T13:42:15.296Z" agent="Mozilla/5.0 (Windows NT 10.0; Win64; x64) AppleWebKit/537.36 (KHTML, like Gecko) Chrome/114.0.0.0 Safari/537.36" version="21.5.1" etag="a4gJRk3JClEAbeQaCGJy" type="github">
  <diagram name="第 1 页" id="f-01IgNtScXEDmYA4fdB">
    <mxGraphModel>
      <root>
        <mxCell id="0" />
        <mxCell id="1" parent="0" />
      </root>
    </mxGraphModel>
  </diagram>
</mxfile>
